<?xml version="1.0" standalone="no"?>
<!DOCTYPE svg PUBLIC "-//W3C//DTD SVG 20010904//EN"
 "http://www.w3.org/TR/2001/REC-SVG-20010904/DTD/svg10.dtd">
<svg version="1.0" xmlns="http://www.w3.org/2000/svg"
 width="514.000000pt" height="514.000000pt" viewBox="0 0 514.000000 514.000000"
 preserveAspectRatio="xMidYMid meet">
<metadata>
Created by potrace 1.11, written by Peter Selinger 2001-2013
</metadata>
<g transform="translate(0.000000,514.000000) scale(0.100000,-0.100000)"
fill="#000000" stroke="none">
<path d="M2399 5096 c-2 -2 -32 -7 -65 -10 -34 -3 -79 -9 -100 -12 -22 -4 -44
-7 -51 -7 -7 0 -22 -24 -34 -54 -42 -104 -155 -238 -237 -281 -19 -9 -48 -25
-66 -34 -37 -21 -94 -39 -161 -52 -36 -7 -160 -8 -195 -1 -66 12 -113 27 -167
52 l-53 24 -77 -52 c-137 -91 -126 -75 -125 -188 2 -180 -54 -317 -178 -441
-118 -117 -252 -176 -415 -183 l-50 -2 -59 -109 c-54 -98 -58 -110 -46 -130 8
-11 22 -36 31 -54 10 -18 23 -39 29 -47 7 -8 10 -15 6 -15 -4 0 0 -12 7 -27
58 -114 51 -328 -15 -473 -51 -112 -150 -221 -256 -280 -23 -13 -43 -31 -43
-39 -3 -44 -4 -218 -1 -228 2 -7 29 -26 59 -43 50 -28 144 -113 183 -165 46
-62 92 -171 108 -260 25 -136 -19 -339 -95 -441 l-23 -31 36 -74 c20 -41 41
-83 48 -94 6 -11 16 -29 22 -39 9 -15 26 -20 75 -23 339 -19 596 -303 582
-642 -3 -87 -9 -79 119 -165 85 -57 87 -58 115 -43 29 16 83 40 117 51 32 11
107 19 171 19 227 0 437 -130 538 -333 23 -47 43 -87 44 -89 2 -2 17 -5 35 -7
18 -2 49 -6 68 -8 152 -21 143 -22 175 21 215 284 609 336 883 115 43 -34 44
-34 85 -22 38 12 91 32 170 64 15 6 27 13 28 16 5 36 21 120 24 130 44 135
130 252 239 326 58 39 127 74 146 74 10 0 21 4 24 9 15 24 220 34 301 16 60
-14 63 -13 163 104 43 50 61 79 57 90 -44 113 -55 265 -28 369 8 31 16 62 17
67 6 28 50 108 89 161 79 108 203 193 326 225 49 12 60 26 63 76 0 5 4 18 9
31 10 25 16 56 25 118 5 35 3 43 -18 60 -43 34 -116 131 -147 197 -45 94 -61
176 -57 287 6 158 63 291 175 405 l54 55 -17 62 c-10 35 -27 90 -39 122 -22
59 -23 60 -77 77 -83 25 -182 73 -217 106 -7 6 -23 20 -36 30 -36 29 -101 113
-137 176 -76 137 -86 271 -32 432 l30 90 -51 65 c-73 93 -109 130 -118 124
-18 -11 -108 -19 -209 -18 -114 0 -192 20 -300 75 -143 73 -247 238 -284 453
-7 38 -8 39 -101 79 -120 51 -126 51 -166 16 -49 -43 -57 -49 -65 -49 -3 0
-18 -8 -32 -19 -32 -22 -130 -57 -187 -68 -59 -10 -179 -6 -238 8 -29 7 -53
12 -54 11 -2 -1 -39 17 -84 40 -59 30 -103 62 -156 114 -40 40 -73 78 -73 83
0 11 -35 33 -41 27z m655 -823 c3 -4 12 -8 19 -9 42 -6 189 -63 284 -110 l113
-56 16 -54 c30 -105 3 -247 -64 -332 l-31 -39 97 -94 c152 -147 131 -137 192
-91 45 34 93 56 150 69 26 6 134 5 160 -1 64 -15 78 -28 129 -121 57 -101 105
-212 140 -317 l23 -68 -28 -57 c-34 -70 -98 -134 -167 -168 -52 -25 -137 -46
-167 -40 -13 3 -16 -18 -18 -166 l-3 -169 31 0 c71 0 197 -61 248 -120 94
-108 115 -207 72 -328 -72 -201 -96 -239 -177 -278 -73 -36 -72 -36 -173 -36
-94 -1 -164 23 -228 77 l-34 28 -86 -90 c-48 -50 -99 -104 -115 -120 l-27 -29
29 -33 c29 -33 68 -104 78 -145 13 -52 10 -167 -7 -215 -29 -86 -63 -127 -138
-165 -79 -39 -236 -103 -272 -110 -14 -2 -36 -9 -50 -14 -18 -7 -36 -5 -65 6
-125 48 -213 160 -232 297 -3 22 -7 42 -9 44 -2 2 -76 5 -164 5 -153 1 -160 0
-161 -19 -2 -49 -16 -104 -42 -154 -45 -92 -164 -182 -237 -182 -61 0 -395
139 -451 187 -26 24 -68 118 -76 175 -16 105 10 205 74 286 18 23 33 45 33 50
0 9 -216 233 -225 233 -3 0 -16 -10 -28 -21 -22 -21 -117 -70 -147 -76 -125
-24 -262 10 -309 76 -12 16 -21 32 -21 35 0 3 -12 31 -26 62 -35 78 -95 261
-96 298 -4 105 159 254 297 272 28 4 53 11 56 16 8 12 2 308 -6 316 -3 3 -22
7 -43 9 -20 1 -48 6 -62 9 -14 4 -27 8 -30 8 -31 7 -109 59 -143 96 -59 64
-68 82 -57 119 5 17 8 32 8 34 -6 16 76 223 127 322 79 154 102 185 139 186
120 6 199 -15 275 -72 62 -47 44 -55 188 85 l101 98 -32 47 c-60 86 -70 117
-71 222 0 72 4 99 15 110 14 14 58 40 140 86 44 24 200 91 243 104 18 6 41 13
52 16 108 34 254 -48 317 -177 13 -25 23 -49 24 -55 2 -5 5 -21 7 -35 3 -14 6
-34 6 -45 1 -19 7 -20 162 -18 89 1 163 3 165 6 2 2 6 22 9 45 16 124 129 254
255 293 34 10 36 10 44 2z m-396 -59 c124 -74 71 -254 -75 -254 -46 0 -108 50
-120 96 -10 41 -1 98 20 123 40 48 125 65 175 35z m-1124 -389 c40 -19 74 -79
70 -122 -1 -15 -2 -34 -3 -41 -1 -18 -70 -82 -89 -84 -61 -5 -80 -3 -106 11
-16 9 -38 28 -47 41 -53 73 -12 185 75 209 37 10 54 7 100 -14z m2177 -2 c83
-49 85 -176 4 -229 -88 -57 -209 8 -208 112 2 109 111 172 204 117z m-2606
-1090 c56 -41 70 -131 30 -186 -57 -80 -174 -77 -226 6 -16 25 -19 43 -15 84
5 54 24 83 74 109 33 17 105 10 137 -13z m3078 -6 c59 -45 69 -118 26 -182
-65 -95 -209 -68 -239 45 -10 38 0 89 24 119 42 54 131 63 189 18z m-2627
-1078 c56 -54 55 -149 -2 -198 -87 -75 -224 -13 -224 101 0 120 140 180 226
97z m2191 6 c68 -45 79 -142 24 -203 -51 -57 -136 -61 -191 -9 -69 65 -53 174
32 218 37 19 101 16 135 -6z m-1096 -508 c117 -79 52 -258 -88 -243 -76 8
-119 60 -117 141 2 104 117 161 205 102z"/>
<path d="M2760 3693 c-8 -3 -20 -12 -27 -19 -21 -21 -201 -435 -209 -482 -7
-36 21 -72 55 -72 23 0 40 13 84 63 87 100 248 309 259 337 26 64 2 130 -57
159 -33 16 -83 23 -105 14z"/>
<path d="M2459 2961 c-100 -20 -215 -107 -283 -213 -32 -51 -90 -180 -102
-227 -2 -9 -13 -52 -24 -96 -75 -298 69 -581 323 -639 55 -12 162 -13 212 -2
217 49 406 159 593 345 l44 43 -29 30 c-44 46 -126 128 -129 128 -2 0 -18 -14
-36 -31 -45 -41 -154 -119 -167 -119 -6 0 -11 -4 -11 -9 0 -7 -167 -90 -194
-96 -6 -1 -18 -5 -26 -8 -31 -14 -108 -24 -150 -20 -48 5 -78 23 -109 69 -25
36 -26 44 -6 44 39 0 231 96 271 135 7 6 25 22 41 36 47 39 110 126 145 197
28 59 32 77 32 147 0 67 -4 88 -26 130 -44 85 -113 135 -209 153 -64 12 -110
13 -160 3z m153 -252 c27 -36 30 -106 7 -151 -46 -89 -178 -190 -269 -205 -29
-4 -36 5 -31 39 0 4 3 22 5 40 5 39 35 125 65 189 46 98 177 150 223 88z"/>
</g>
</svg>
