<svg xmlns="http://www.w3.org/2000/svg" width="685.333" height="685.333" version="1.0" viewBox="0 0 514 514"><path d="M239.9 4.4c-.2.2-3.2.7-6.5 1-3.4.3-7.9.9-10 1.2-2.2.4-4.4.7-5.1.7-.7 0-2.2 2.4-3.4 5.4-4.2 10.4-15.5 23.8-23.7 28.1-1.9.9-4.8 2.5-6.6 3.4-3.7 2.1-9.4 3.9-16.1 5.2-3.6.7-16 .8-19.5.1-6.6-1.2-11.3-2.7-16.7-5.2l-5.3-2.4-7.7 5.2c-13.7 9.1-12.6 7.5-12.5 18.8.2 18-5.4 31.7-17.8 44.1-11.8 11.7-25.2 17.6-41.5 18.3l-5 .2-5.9 10.9c-5.4 9.8-5.8 11-4.6 13 .8 1.1 2.2 3.6 3.1 5.4 1 1.8 2.3 3.9 2.9 4.7.7.8 1 1.5.6 1.5s0 1.2.7 2.7c5.8 11.4 5.1 32.8-1.5 47.3-5.1 11.2-15 22.1-25.6 28-2.3 1.3-4.3 3.1-4.3 3.9-.3 4.4-.4 21.8-.1 22.8.2.7 2.9 2.6 5.9 4.3 5 2.8 14.4 11.3 18.3 16.5 4.6 6.2 9.2 17.1 10.8 26 2.5 13.6-1.9 33.9-9.5 44.1l-2.3 3.1 3.6 7.4c2 4.1 4.1 8.3 4.8 9.4.6 1.1 1.6 2.9 2.2 3.9.9 1.5 2.6 2 7.5 2.3 33.9 1.9 59.6 30.3 58.2 64.2-.3 8.7-.9 7.9 11.9 16.5 8.5 5.7 8.7 5.8 11.5 4.3 2.9-1.6 8.3-4 11.7-5.1 3.2-1.1 10.7-1.9 17.1-1.9 22.7 0 43.7 13 53.8 33.3 2.3 4.7 4.3 8.7 4.4 8.9.2.2 1.7.5 3.5.7 1.8.2 4.9.6 6.8.8 15.2 2.1 14.3 2.2 17.5-2.1 21.5-28.4 60.9-33.6 88.3-11.5 4.3 3.4 4.4 3.4 8.5 2.2 3.8-1.2 9.1-3.2 17-6.4 1.5-.6 2.7-1.3 2.8-1.6.5-3.6 2.1-12 2.4-13 4.4-13.5 13-25.2 23.9-32.6 5.8-3.9 12.7-7.4 14.6-7.4 1 0 2.1-.4 2.4-.9 1.5-2.4 22-3.4 30.1-1.6 6 1.4 6.3 1.3 16.3-10.4 4.3-5 6.1-7.9 5.7-9-4.4-11.3-5.5-26.5-2.8-36.9.8-3.1 1.6-6.2 1.7-6.7.6-2.8 5-10.8 8.9-16.1 7.9-10.8 20.3-19.3 32.6-22.5 4.9-1.2 6-2.6 6.3-7.6 0-.5.4-1.8.9-3.1 1-2.5 1.6-5.6 2.5-11.8.5-3.5.3-4.3-1.8-6-4.3-3.4-11.6-13.1-14.7-19.7-4.5-9.4-6.1-17.6-5.7-28.7.6-15.8 6.3-29.1 17.5-40.5l5.4-5.5-1.7-6.2c-1-3.5-2.7-9-3.9-12.2-2.2-5.9-2.3-6-7.7-7.7-8.3-2.5-18.2-7.3-21.7-10.6-.7-.6-2.3-2-3.6-3-3.6-2.9-10.1-11.3-13.7-17.6-7.6-13.7-8.6-27.1-3.2-43.2l3-9-5.1-6.5c-7.3-9.3-10.9-13-11.8-12.4-1.8 1.1-10.8 1.9-20.9 1.8-11.4 0-19.2-2-30-7.5-14.3-7.3-24.7-23.8-28.4-45.3-.7-3.8-.8-3.9-10.1-7.9-12-5.1-12.6-5.1-16.6-1.6-4.9 4.3-5.7 4.9-6.5 4.9-.3 0-1.8.8-3.2 1.9-3.2 2.2-13 5.7-18.7 6.8-5.9 1-17.9.6-23.8-.8-2.9-.7-5.3-1.2-5.4-1.1-.2.1-3.9-1.7-8.4-4-5.9-3-10.3-6.2-15.6-11.4-4-4-7.3-7.8-7.3-8.3 0-1.1-3.5-3.3-4.1-2.7zm65.5 82.3c.3.4 1.2.8 1.9.9 4.2.6 18.9 6.3 28.4 11l11.3 5.6 1.6 5.4c3 10.5.3 24.7-6.4 33.2l-3.1 3.9 9.7 9.4c15.2 14.7 13.1 13.7 19.2 9.1 4.5-3.4 9.3-5.6 15-6.9 2.6-.6 13.4-.5 16 .1 6.4 1.5 7.8 2.8 12.9 12.1 5.7 10.1 10.5 21.2 14 31.7l2.3 6.8-2.8 5.7c-3.4 7-9.8 13.4-16.7 16.8-5.2 2.5-13.7 4.6-16.7 4-1.3-.3-1.6 1.8-1.8 16.6l-.3 16.9h3.1c7.1 0 19.7 6.1 24.8 12 9.4 10.8 11.5 20.7 7.2 32.8-7.2 20.1-9.6 23.9-17.7 27.8-7.3 3.6-7.2 3.6-17.3 3.6-9.4.1-16.4-2.3-22.8-7.7l-3.4-2.8-8.6 9c-4.8 5-9.9 10.4-11.5 12l-2.7 2.9 2.9 3.3c2.9 3.3 6.8 10.4 7.8 14.5 1.3 5.2 1 16.7-.7 21.5-2.9 8.6-6.3 12.7-13.8 16.5-7.9 3.9-23.6 10.3-27.2 11-1.4.2-3.6.9-5 1.4-1.8.7-3.6.5-6.5-.6-12.5-4.8-21.3-16-23.2-29.7-.3-2.2-.7-4.2-.9-4.4-.2-.2-7.6-.5-16.4-.5-15.3-.1-16 0-16.1 1.9-.2 4.9-1.6 10.4-4.2 15.4-4.5 9.2-16.4 18.2-23.7 18.2-6.1 0-39.5-13.9-45.1-18.7-2.6-2.4-6.8-11.8-7.6-17.5-1.6-10.5 1-20.5 7.4-28.6 1.8-2.3 3.3-4.5 3.3-5 0-.9-21.6-23.3-22.5-23.3-.3 0-1.6 1-2.8 2.1-2.2 2.1-11.7 7-14.7 7.6-12.5 2.4-26.2-1-30.9-7.6-1.2-1.6-2.1-3.2-2.1-3.5 0-.3-1.2-3.1-2.6-6.2-3.5-7.8-9.5-26.1-9.6-29.8-.4-10.5 15.9-25.4 29.7-27.2 2.8-.4 5.3-1.1 5.6-1.6.8-1.2.2-30.8-.6-31.6-.3-.3-2.2-.7-4.3-.9-2-.1-4.8-.6-6.2-.9-1.4-.4-2.7-.8-3-.8-3.1-.7-10.9-5.9-14.3-9.6-5.9-6.4-6.8-8.2-5.7-11.9.5-1.7.8-3.2.8-3.4-.6-1.6 7.6-22.3 12.7-32.2 7.9-15.4 10.2-18.5 13.9-18.6 12-.6 19.9 1.5 27.5 7.2 6.2 4.7 4.4 5.5 18.8-8.5l10.1-9.8-3.2-4.7c-6-8.6-7-11.7-7.1-22.2 0-7.2.4-9.9 1.5-11 1.4-1.4 5.8-4 14-8.6 4.4-2.4 20-9.1 24.3-10.4 1.8-.6 4.1-1.3 5.2-1.6 10.8-3.4 25.4 4.8 31.7 17.7 1.3 2.5 2.3 4.9 2.4 5.5.2.5.5 2.1.7 3.5.3 1.4.6 3.4.6 4.5.1 1.9.7 2 16.2 1.8 8.9-.1 16.3-.3 16.5-.6.2-.2.6-2.2.9-4.5 1.6-12.4 12.9-25.4 25.5-29.3 3.4-1 3.6-1 4.4-.2zm-39.6 5.9c12.4 7.4 7.1 25.4-7.5 25.4-4.6 0-10.8-5-12-9.6-1-4.1-.1-9.8 2-12.3 4-4.8 12.5-6.5 17.5-3.5zm-112.4 38.9c4 1.9 7.4 7.9 7 12.2-.1 1.5-.2 3.4-.3 4.1-.1 1.8-7 8.2-8.9 8.4-6.1.5-8 .3-10.6-1.1-1.6-.9-3.8-2.8-4.7-4.1-5.3-7.3-1.2-18.5 7.5-20.9 3.7-1 5.4-.7 10 1.4zm217.7.2c8.3 4.9 8.5 17.6.4 22.9-8.8 5.7-20.9-.8-20.8-11.2.2-10.9 11.1-17.2 20.4-11.7zm-260.6 109c5.6 4.1 7 13.1 3 18.6-5.7 8-17.4 7.7-22.6-.6-1.6-2.5-1.9-4.3-1.5-8.4.5-5.4 2.4-8.3 7.4-10.9 3.3-1.7 10.5-1 13.7 1.3zm307.8.6c5.9 4.5 6.9 11.8 2.6 18.2-6.5 9.5-20.9 6.8-23.9-4.5-1-3.8 0-8.9 2.4-11.9 4.2-5.4 13.1-6.3 18.9-1.8zM155.6 349.1c5.6 5.4 5.5 14.9-.2 19.8-8.7 7.5-22.4 1.3-22.4-10.1 0-12 14-18 22.6-9.7zm219.1-.6c6.8 4.5 7.9 14.2 2.4 20.3-5.1 5.7-13.6 6.1-19.1.9-6.9-6.5-5.3-17.4 3.2-21.8 3.7-1.9 10.1-1.6 13.5.6zm-109.6 50.8c11.7 7.9 5.2 25.8-8.8 24.3-7.6-.8-11.9-6-11.7-14.1.2-10.4 11.7-16.1 20.5-10.2z"/><path d="M276 144.7c-.8.3-2 1.2-2.7 1.9-2.1 2.1-20.1 43.5-20.9 48.2-.7 3.6 2.1 7.2 5.5 7.2 2.3 0 4-1.3 8.4-6.3 8.7-10 24.8-30.9 25.9-33.7 2.6-6.4.2-13-5.7-15.9-3.3-1.6-8.3-2.3-10.5-1.4zM245.9 217.9c-10 2-21.5 10.7-28.3 21.3-3.2 5.1-9 18-10.2 22.7-.2.9-1.3 5.2-2.4 9.6-7.5 29.8 6.9 58.1 32.3 63.9 5.5 1.2 16.2 1.3 21.2.2 21.7-4.9 40.6-15.9 59.3-34.5l4.4-4.3-2.9-3c-4.4-4.6-12.6-12.8-12.9-12.8-.2 0-1.8 1.4-3.6 3.1-4.5 4.1-15.4 11.9-16.7 11.9-.6 0-1.1.4-1.1.9 0 .7-16.7 9-19.4 9.6-.6.1-1.8.5-2.6.8-3.1 1.4-10.8 2.4-15 2-4.8-.5-7.8-2.3-10.9-6.9-2.5-3.6-2.6-4.4-.6-4.4 3.9 0 23.1-9.6 27.1-13.5.7-.6 2.5-2.2 4.1-3.6 4.7-3.9 11-12.6 14.5-19.7 2.8-5.9 3.2-7.7 3.2-14.7 0-6.7-.4-8.8-2.6-13-4.4-8.5-11.3-13.5-20.9-15.3-6.4-1.2-11-1.3-16-.3zm15.3 25.2c2.7 3.6 3 10.6.7 15.1-4.6 8.9-17.8 19-26.9 20.5-2.9.4-3.6-.5-3.1-3.9 0-.4.3-2.2.5-4 .5-3.9 3.5-12.5 6.5-18.9 4.6-9.8 17.7-15 22.3-8.8z"/></svg>
